<svg id="Component_7_1" data-name="Component 7 – 1" xmlns="http://www.w3.org/2000/svg" width="26.839" height="26.839" viewBox="0 0 26.839 26.839">
  <g id="XMLID_5_">
    <g id="Group_42626" data-name="Group 42626">
      <g id="Group_42625" data-name="Group 42625">
        <path id="Path_62309" data-name="Path 62309" d="M13.42,26.839a13.42,13.42,0,1,1,13.42-13.42A13.459,13.459,0,0,1,13.42,26.839Zm0-25.162A11.742,11.742,0,1,0,25.162,13.42,11.777,11.777,0,0,0,13.42,1.677Z" fill="#fff"/>
      </g>
    </g>
  </g>
  <g id="Group_42628" data-name="Group 42628" transform="translate(18.871 9.641) rotate(90)">
    <g id="Group_42627" data-name="Group 42627">
      <path id="Path_62310" data-name="Path 62310" d="M0,10.022l5.728-4.45L0,.88A.879.879,0,0,1,1.384.167l5.829,4.7a.865.865,0,0,1,0,1.384L1.384,10.735A.879.879,0,0,1,0,10.022Z" fill="#fff"/>
    </g>
  </g>
</svg>
