<svg xmlns="http://www.w3.org/2000/svg" width="33.969" height="33.341" viewBox="0 0 33.969 33.341">
  <g id="movie-interface-symbol-svgrepo-com" transform="translate(0.822 0.759)">
    <path id="Path_62371" data-name="Path 62371" d="M28.752,11.575H10.457L28.24,6.733a2.732,2.732,0,0,0,1.921-3.351l-.284-1.052A2.729,2.729,0,0,0,26.52.406L2.017,7.074A2.734,2.734,0,0,0,.1,10.429l.284,1.052a2.728,2.728,0,0,0,1.281,1.655c.042.025.09.034.133.056a3.627,3.627,0,0,0-.617,2.03V28.5a3.646,3.646,0,0,0,3.646,3.646H28.751A3.646,3.646,0,0,0,32.4,28.5V15.221A3.645,3.645,0,0,0,28.752,11.575ZM22.176,23.061l-7.853,4.458a.856.856,0,0,1-1.278-.744V17.859a.856.856,0,0,1,1.278-.746l7.853,4.46a.854.854,0,0,1,0,1.488Z" transform="translate(0 -0.31)" fill="none" stroke="#fff" stroke-width="1.5"/>
  </g>
</svg>
