<svg id="search" xmlns="http://www.w3.org/2000/svg" width="36.261" height="36.261" viewBox="0 0 36.261 36.261">
  <g id="Group_42867" data-name="Group 42867" transform="translate(5.452 7.86)">
    <g id="Group_42866" data-name="Group 42866">
      <path id="Path_62368" data-name="Path 62368" d="M81.538,111.368a1.339,1.339,0,0,0-1.894,0,9.156,9.156,0,0,0-2.619,7.421A1.34,1.34,0,0,0,78.357,120c.045,0,.09,0,.134-.007a1.34,1.34,0,0,0,1.2-1.467,6.486,6.486,0,0,1,1.847-5.261A1.339,1.339,0,0,0,81.538,111.368Z" transform="translate(-76.978 -110.975)" fill="#fff"/>
    </g>
  </g>
  <g id="Group_42869" data-name="Group 42869">
    <g id="Group_42868" data-name="Group 42868">
      <path id="Path_62369" data-name="Path 62369" d="M15.317,0A15.317,15.317,0,1,0,30.634,15.317,15.335,15.335,0,0,0,15.317,0Zm0,27.955A12.638,12.638,0,1,1,27.955,15.317,12.652,12.652,0,0,1,15.317,27.955Z" fill="#fff"/>
    </g>
  </g>
  <g id="Group_42871" data-name="Group 42871" transform="translate(23.846 23.847)">
    <g id="Group_42870" data-name="Group 42870">
      <path id="Path_62370" data-name="Path 62370" d="M348.731,346.837,339,337.1A1.34,1.34,0,0,0,337.1,339l9.735,9.735a1.34,1.34,0,1,0,1.894-1.894Z" transform="translate(-336.708 -336.709)" fill="#fff"/>
    </g>
  </g>
</svg>
