<svg xmlns="http://www.w3.org/2000/svg" width="34.617" height="33.82" viewBox="0 0 34.617 33.82">
  <g id="Component_6_1" data-name="Component 6 – 1" transform="translate(1.114 1.428)">
    <path id="Path_62308" data-name="Path 62308" d="M-6930.6-7915.366c2.111-2.754,15.465-14.476,15.465-14.476s15.065,11.778,16.253,14.476-3.343,2.7-3.343,2.7.185,8.479,0,11.491a2.439,2.439,0,0,1-2.809,2.593h-5.29v-5.156a24.6,24.6,0,0,1,0-2.786,2.392,2.392,0,0,0-2.443-2.542h-3.935s-1.88-.344-1.9,3.264,0,7.221,0,7.221h-4.81s-3.652.4-3.76-3.269,0-10.815,0-10.815S-6932.712-7912.61-6930.6-7915.366Z" transform="translate(6931.081 7929.841)" stroke-width="2.2"/>
  </g>
</svg>
