<svg id="smart-tv-svgrepo-com" xmlns="http://www.w3.org/2000/svg" width="33.795" height="27.599" viewBox="0 0 33.795 27.599">
  <g id="Group_42902" data-name="Group 42902">
    <path id="Path_62372" data-name="Path 62372" d="M12.795,16.5H11.148A1.149,1.149,0,0,0,10,17.648v1.647a1.149,1.149,0,0,0,1.148,1.148h1.647a1.149,1.149,0,0,0,1.148-1.148V17.648A1.149,1.149,0,0,0,12.795,16.5Zm.021,2.795a.021.021,0,0,1-.021.021l-1.668-.021.021-1.668,1.668.021Z" transform="translate(-4.368 -10.304)" fill="#fff"/>
    <path id="Path_62373" data-name="Path 62373" d="M23.795,16.5H22.148A1.149,1.149,0,0,0,21,17.648v1.647a1.149,1.149,0,0,0,1.148,1.148h1.647a1.149,1.149,0,0,0,1.148-1.148V17.648A1.149,1.149,0,0,0,23.795,16.5Zm.021,2.795a.021.021,0,0,1-.021.021l-1.668-.021.021-1.668,1.668.021Z" transform="translate(-9.172 -10.304)" fill="#fff"/>
    <path id="Path_62374" data-name="Path 62374" d="M33.148,20.443h1.647a1.149,1.149,0,0,0,1.148-1.148V17.648A1.149,1.149,0,0,0,34.795,16.5H33.148A1.149,1.149,0,0,0,32,17.648v1.647A1.149,1.149,0,0,0,33.148,20.443Zm0-2.816,1.668.021v1.647a.021.021,0,0,1-.021.021l-1.668-.021Z" transform="translate(-13.976 -10.304)" fill="#fff"/>
    <path id="Path_62375" data-name="Path 62375" d="M44.148,20.443h1.647a1.149,1.149,0,0,0,1.148-1.148V17.648A1.149,1.149,0,0,0,45.795,16.5H44.148A1.149,1.149,0,0,0,43,17.648v1.647A1.149,1.149,0,0,0,44.148,20.443Zm0-2.816,1.668.021v1.647a.022.022,0,0,1-.021.021l-1.668-.021Z" transform="translate(-18.78 -10.304)" fill="#fff"/>
    <path id="Path_62376" data-name="Path 62376" d="M12.795,27.5H11.148A1.149,1.149,0,0,0,10,28.648v1.647a1.149,1.149,0,0,0,1.148,1.148h1.647a1.149,1.149,0,0,0,1.148-1.148V28.648A1.149,1.149,0,0,0,12.795,27.5Zm.021,2.795a.021.021,0,0,1-.021.021l-1.668-.021.021-1.668,1.668.021Z" transform="translate(-4.368 -15.109)" fill="#fff"/>
    <path id="Path_62377" data-name="Path 62377" d="M23.795,27.5H22.148A1.149,1.149,0,0,0,21,28.648v1.647a1.149,1.149,0,0,0,1.148,1.148h1.647a1.149,1.149,0,0,0,1.148-1.148V28.648A1.149,1.149,0,0,0,23.795,27.5Zm.021,2.795a.021.021,0,0,1-.021.021l-1.668-.021.021-1.668,1.668.021Z" transform="translate(-9.172 -15.109)" fill="#fff"/>
    <path id="Path_62378" data-name="Path 62378" d="M33.148,31.443h1.647a1.149,1.149,0,0,0,1.148-1.148V28.648A1.149,1.149,0,0,0,34.795,27.5H33.148A1.149,1.149,0,0,0,32,28.648v1.647A1.149,1.149,0,0,0,33.148,31.443Zm0-2.816,1.668.021v1.647a.021.021,0,0,1-.021.021l-1.668-.021Z" transform="translate(-13.976 -15.109)" fill="#fff"/>
    <path id="Path_62379" data-name="Path 62379" d="M44.148,31.443h1.647a1.149,1.149,0,0,0,1.148-1.148V28.648A1.149,1.149,0,0,0,45.795,27.5H44.148A1.149,1.149,0,0,0,43,28.648v1.647A1.149,1.149,0,0,0,44.148,31.443Zm0-2.816,1.668.021v1.647a.022.022,0,0,1-.021.021l-1.668-.021Z" transform="translate(-18.78 -15.109)" fill="#fff"/>
    <path id="Path_62380" data-name="Path 62380" d="M33.795,28.03V5.5H0V28.03H16.334v2.253H8.449V33.1h16.9V30.283H17.461V28.03ZM24.22,31.409v.563H9.575v-.563ZM1.126,6.626H32.668V26.9H1.126Z" transform="translate(0 -5.5)" fill="#fff"/>
  </g>
</svg>
